<svg xmlns="http://www.w3.org/2000/svg" xmlns:xlink="http://www.w3.org/1999/xlink" width="2112" height="2112" viewBox="0 0 2112 2112">

<path fill-rule="evenodd" fill="currentColor" fill-opacity="1" d="M 1804.378906 1590.210938 C 1807.53125 1573.550781 1820.859375 1567.074219 1834.101562 1560.496094 C 1872.058594 1559.851562 1852.191406 1571.523438 1848.949219 1590.210938 C 1834.101562 1590.210938 1819.25 1590.210938 1804.378906 1590.210938 "/>
<path fill-rule="evenodd" fill="currentColor" fill-opacity="1" d="M 1774.671875 1545.636719 C 1779.640625 1545.636719 1784.589844 1545.636719 1789.550781 1545.636719 C 1786.199219 1557.171875 1789.109375 1574.945312 1774.671875 1575.367188 C 1769.730469 1575.367188 1764.769531 1575.367188 1759.800781 1575.367188 C 1759.800781 1565.4375 1759.800781 1555.554688 1759.800781 1545.636719 C 1764.769531 1545.636719 1769.730469 1545.636719 1774.671875 1545.636719 "/>
<path fill-rule="evenodd" fill="currentColor" fill-opacity="1" d="M 190.339844 572.46875 C 185.234375 577.578125 185.234375 585.808594 190.339844 590.921875 C 195.421875 596.011719 203.652344 596.011719 208.792969 590.921875 C 213.875 585.808594 213.875 577.578125 208.792969 572.46875 C 203.652344 567.371094 195.421875 567.421875 190.339844 572.46875 "/>
<path fill-rule="evenodd" fill="currentColor" fill-opacity="1" d="M 139.210938 555.808594 C 140.542969 554.769531 141.410156 553.179688 141.574219 551.460938 C 141.691406 549.71875 141.128906 548.050781 139.933594 546.761719 C 124.292969 529.800781 122.429688 512.488281 122.59375 504.261719 C 132.195312 504.589844 151.820312 507.269531 166.535156 522.859375 C 167.847656 524.25 169.769531 524.960938 171.640625 524.800781 C 173.539062 524.570312 175.269531 523.519531 176.277344 521.890625 C 176.417969 521.730469 186.382812 506.101562 201.007812 503.640625 C 195.140625 513.628906 186.828125 530.511719 184.976562 548.691406 C 180.960938 550.089844 176.921875 552.121094 173.175781 555.890625 C 169.851562 559.21875 167.285156 562.960938 165.53125 567.109375 C 147.441406 569.03125 130.976562 577.300781 121.246094 583.160156 C 123.4375 568.320312 139.011719 555.980469 139.210938 555.808594 Z M 109.925781 595.871094 C 110.535156 597.871094 111.996094 599.421875 113.964844 600.019531 C 114.609375 600.28125 115.253906 600.378906 115.898438 600.378906 C 117.242188 600.359375 118.554688 599.910156 119.644531 599.101562 C 119.890625 598.898438 144.371094 580.378906 170.378906 579.140625 C 173.011719 579.011719 175.351562 577.179688 176.042969 574.621094 C 177.050781 570.820312 178.960938 567.578125 181.910156 564.628906 C 184.8125 561.78125 187.894531 560.550781 192.296875 559.46875 C 194.941406 558.800781 196.851562 556.449219 196.992188 553.71875 C 198.066406 527.558594 216.824219 501.988281 216.976562 501.738281 C 218.230469 500.070312 218.558594 497.910156 217.890625 495.960938 C 217.1875 494.011719 215.550781 492.53125 213.535156 492.050781 C 210.664062 491.300781 207.726562 490.941406 204.847656 490.941406 C 188.617188 490.941406 176.464844 502.148438 170.296875 509.390625 C 151.902344 493.671875 129.714844 491.851562 120.476562 491.851562 C 117.992188 491.839844 116.515625 491.96875 116.363281 492 C 113.601562 492.25 111.378906 494.261719 110.875 496.96875 C 110.628906 498.089844 105.851562 524.179688 126.75 550.371094 C 118.683594 558.238281 104.140625 575.851562 109.925781 595.871094 "/>
<path fill-rule="evenodd" fill="currentColor" fill-opacity="1" d="M 1903.21875 572.46875 C 1898.148438 577.578125 1898.148438 585.808594 1903.21875 590.921875 C 1908.328125 596.011719 1916.558594 596.011719 1921.660156 590.921875 C 1926.769531 585.808594 1926.769531 577.578125 1921.660156 572.46875 C 1916.558594 567.421875 1908.328125 567.371094 1903.21875 572.46875 "/>
<path fill-rule="evenodd" fill="currentColor" fill-opacity="1" d="M 1935.699219 521.890625 C 1936.730469 523.519531 1938.441406 524.570312 1940.359375 524.800781 C 1942.269531 524.960938 1944.128906 524.25 1945.441406 522.859375 C 1960.179688 507.269531 1979.78125 504.589844 1989.429688 504.261719 C 1989.609375 512.488281 1987.730469 529.800781 1972.039062 546.761719 C 1970.910156 548.050781 1970.289062 549.71875 1970.460938 551.460938 C 1970.589844 553.179688 1971.429688 554.769531 1972.800781 555.808594 C 1972.96875 555.980469 1988.621094 568.320312 1990.738281 583.160156 C 1981 577.300781 1964.539062 569.03125 1946.46875 567.109375 C 1944.71875 562.988281 1942.199219 559.21875 1938.839844 555.890625 C 1935.058594 552.121094 1931.019531 550.089844 1927.058594 548.691406 C 1925.191406 530.511719 1916.878906 513.628906 1910.96875 503.640625 C 1925.53125 506.140625 1935.621094 521.730469 1935.699219 521.890625 Z M 1915 553.71875 C 1915.128906 556.449219 1917.058594 558.800781 1919.679688 559.46875 C 1924.101562 560.550781 1927.191406 561.75 1930.089844 564.628906 C 1933.019531 567.570312 1934.949219 570.820312 1935.980469 574.621094 C 1936.679688 577.171875 1938.980469 579.011719 1941.671875 579.140625 C 1967.519531 580.378906 1991.890625 598.769531 1992.390625 599.101562 C 1993.421875 599.910156 1994.769531 600.378906 1996.121094 600.378906 C 1996.761719 600.359375 1997.421875 600.289062 1998.078125 600.019531 C 1999.988281 599.421875 2001.488281 597.871094 2002.078125 595.871094 C 2007.859375 575.851562 1993.308594 558.238281 1985.230469 550.371094 C 2006.148438 524.179688 2001.359375 498.089844 2001.160156 496.96875 C 2000.660156 494.261719 1998.398438 492.25 1995.679688 492 C 1995.519531 491.96875 1994.011719 491.851562 1991.558594 491.851562 C 1982.300781 491.839844 1960.101562 493.671875 1941.710938 509.390625 C 1935.539062 502.148438 1923.359375 490.941406 1907.140625 490.941406 C 1904.25 490.941406 1901.328125 491.300781 1898.46875 492.050781 C 1896.488281 492.53125 1894.839844 494.011719 1894.148438 495.960938 C 1893.46875 497.910156 1893.808594 500.070312 1895 501.738281 C 1895.21875 501.988281 1913.910156 527.558594 1915 553.71875 "/>
<path fill-rule="evenodd" fill="currentColor" fill-opacity="1" d="M 208.792969 1541.785156 C 213.875 1536.703125 213.875 1528.4375 208.792969 1523.332031 C 203.652344 1518.226562 195.421875 1518.261719 190.339844 1523.332031 C 185.234375 1528.472656 185.234375 1536.703125 190.339844 1541.785156 C 195.421875 1546.867188 203.652344 1546.867188 208.792969 1541.785156 "/>
<path fill-rule="evenodd" fill="currentColor" fill-opacity="1" d="M 176.277344 1592.320312 C 175.269531 1590.714844 173.539062 1589.710938 171.640625 1589.484375 C 171.441406 1589.4375 171.277344 1589.4375 171.046875 1589.4375 C 169.347656 1589.4375 167.730469 1590.140625 166.535156 1591.394531 C 151.820312 1606.96875 132.195312 1609.695312 122.59375 1610.011719 C 122.429688 1601.746094 124.28125 1584.476562 139.933594 1567.472656 C 141.128906 1566.210938 141.691406 1564.511719 141.574219 1562.753906 C 141.410156 1561.058594 140.542969 1559.464844 139.210938 1558.398438 C 139.011719 1558.28125 123.425781 1545.941406 121.246094 1531.070312 C 130.976562 1536.9375 147.441406 1545.25 165.53125 1547.171875 C 167.285156 1551.28125 169.851562 1555.015625 173.175781 1558.363281 C 176.921875 1562.109375 180.960938 1564.195312 184.976562 1565.542969 C 186.828125 1583.726562 195.140625 1600.609375 201.007812 1610.597656 C 186.511719 1608.101562 176.417969 1592.507812 176.277344 1592.320312 Z M 196.992188 1560.554688 C 196.851562 1557.789062 194.941406 1555.472656 192.296875 1554.769531 C 187.894531 1553.679688 184.8125 1552.488281 181.945312 1549.605469 C 178.960938 1546.667969 177.050781 1543.425781 176.042969 1539.664062 C 175.351562 1537.054688 173.011719 1535.230469 170.378906 1535.109375 C 144.371094 1533.835938 119.890625 1515.347656 119.644531 1515.183594 C 118.039062 1513.90625 115.898438 1513.542969 113.964844 1514.1875 C 112.046875 1514.855469 110.535156 1516.414062 109.925781 1518.367188 C 104.140625 1538.4375 118.683594 1556 126.75 1563.867188 C 105.851562 1590.105469 110.628906 1616.121094 110.875 1617.316406 C 111.378906 1620 113.601562 1622.035156 116.363281 1622.269531 C 116.515625 1622.269531 117.992188 1622.398438 120.476562 1622.398438 C 129.714844 1622.398438 151.902344 1620.5625 170.296875 1604.882812 C 176.464844 1612.097656 188.617188 1623.300781 204.847656 1623.300781 C 207.726562 1623.300781 210.664062 1622.9375 213.535156 1622.234375 C 215.550781 1621.710938 217.140625 1620.234375 217.890625 1618.277344 C 218.558594 1616.320312 218.230469 1614.167969 217.023438 1612.539062 C 216.824219 1612.257812 198.066406 1586.722656 196.992188 1560.554688 "/>
<path fill-rule="evenodd" fill="currentColor" fill-opacity="1" d="M 1599.710938 1519.621094 C 1596.339844 1519.621094 1593.511719 1522.382812 1593.511719 1525.816406 L 1593.511719 1610.09375 L 518.988281 1610.09375 L 518.988281 1525.804688 C 518.988281 1522.382812 516.226562 1519.621094 512.820312 1519.621094 L 464.496094 1519.621094 C 339.730469 1519.621094 236.039062 1426.175781 223.300781 1302.261719 C 222.949219 1299.136719 220.324219 1296.710938 217.140625 1296.710938 L 122.910156 1296.710938 L 122.910156 814.5 L 217.140625 814.5 C 220.324219 814.5 222.949219 812.101562 223.300781 808.980469 C 236.039062 684.988281 339.730469 591.558594 464.496094 591.558594 L 512.820312 591.550781 C 516.226562 591.550781 518.988281 588.769531 518.988281 585.371094 L 518.988281 501.070312 L 1593.511719 501.070312 L 1593.511719 585.371094 C 1593.511719 588.769531 1596.339844 591.558594 1599.710938 591.558594 L 1648.019531 591.550781 C 1772.800781 591.550781 1876.519531 684.988281 1889.230469 808.980469 C 1889.558594 812.101562 1892.191406 814.5 1895.421875 814.5 L 1989.609375 814.5 L 1989.609375 1296.710938 L 1895.421875 1296.710938 C 1892.191406 1296.710938 1889.539062 1299.136719 1889.230469 1302.261719 C 1876.519531 1426.175781 1772.800781 1519.621094 1648.011719 1519.621094 Z M 1886.410156 1525.125 C 1873.28125 1501.367188 1846.691406 1486.625 1817.128906 1486.625 L 1793.210938 1486.625 C 1802.300781 1480.351562 1811.011719 1473.429688 1819.28125 1465.890625 C 1835.941406 1450.785156 1850.398438 1433.679688 1862.339844 1415.121094 L 1862.339844 1436.359375 C 1862.339844 1465.890625 1877.128906 1492.457031 1900.890625 1505.605469 C 1910.609375 1511.027344 1921.21875 1513.707031 1931.710938 1513.707031 C 1943.28125 1513.707031 1954.820312 1510.5 1965.210938 1503.988281 C 1987.371094 1490.128906 1998.808594 1468.488281 1995.75 1446.183594 C 1993.179688 1427.542969 1981.148438 1412.40625 1963.890625 1405.636719 C 1944.828125 1383.027344 1938.640625 1360.429688 1947.398438 1345.058594 C 1952.308594 1336.382812 1961.378906 1331.546875 1969.890625 1332.949219 C 1981.980469 1335.046875 1985.160156 1344.730469 1984.351562 1350.722656 C 1984.300781 1351.179688 1984.199219 1351.835938 1983.988281 1352.5625 C 1981.75 1348.605469 1977.5 1345.921875 1972.609375 1345.921875 C 1965.398438 1345.921875 1959.601562 1351.753906 1959.601562 1358.953125 C 1959.601562 1365.792969 1964.871094 1371.414062 1971.601562 1371.964844 C 1971.679688 1371.964844 1971.761719 1372.011719 1971.859375 1372.011719 C 1984.671875 1373.25 1994.890625 1365.230469 1996.628906 1352.398438 C 1998.398438 1339.449219 1990.328125 1323.921875 1971.96875 1320.773438 C 1958.328125 1318.476562 1944.128906 1325.75 1936.648438 1338.933594 C 1931.710938 1347.597656 1923.859375 1369.75 1945.558594 1401.9375 C 1929.03125 1401.691406 1916.46875 1410.238281 1909.601562 1419.863281 C 1899.5 1433.914062 1899.21875 1451.910156 1908.878906 1465.691406 C 1918.578125 1479.507812 1933.671875 1480.269531 1943.640625 1476.71875 C 1954.289062 1472.960938 1960.96875 1464.214844 1960.351562 1455.011719 C 1959.851562 1448.117188 1957.539062 1442.871094 1953.429688 1439.40625 C 1951.789062 1437.988281 1950.050781 1437.050781 1948.398438 1436.441406 C 1946.710938 1435.609375 1944.828125 1435.164062 1942.828125 1435.164062 C 1935.621094 1435.164062 1929.808594 1440.996094 1929.808594 1448.199219 C 1929.808594 1455.421875 1935.621094 1461.253906 1942.828125 1461.253906 C 1943.929688 1461.253906 1945 1461.089844 1946.03125 1460.84375 C 1944.550781 1462.554688 1942.269531 1464.050781 1939.53125 1465.082031 C 1933.328125 1467.234375 1924.710938 1466.710938 1918.988281 1458.570312 C 1912.398438 1449.183594 1912.648438 1436.804688 1919.648438 1427.0625 C 1925.898438 1418.351562 1938.71875 1410.847656 1956.03125 1415.988281 C 1970.871094 1420.390625 1981.421875 1432.566406 1983.488281 1447.835938 C 1985.859375 1465.246094 1976.558594 1482.304688 1958.648438 1493.5 C 1942.46875 1503.628906 1923.589844 1504.070312 1906.851562 1494.808594 C 1887.03125 1483.816406 1874.769531 1461.40625 1874.769531 1436.359375 L 1874.769531 1401.644531 C 1874.769531 1399.886719 1874.019531 1398.34375 1872.890625 1397.21875 C 1887.441406 1369.984375 1897.058594 1340.199219 1900.929688 1309.101562 L 1995.800781 1309.101562 C 1999.230469 1309.101562 2001.988281 1306.335938 2001.988281 1302.90625 L 2001.988281 808.308594 C 2001.988281 804.898438 1999.230469 802.121094 1995.800781 802.121094 L 1900.929688 802.121094 C 1897.101562 771.738281 1887.871094 742.519531 1873.820312 715.78125 C 1874.378906 714.859375 1874.769531 713.761719 1874.769531 712.628906 L 1874.769531 677.921875 C 1874.769531 652.828125 1887.03125 630.421875 1906.851562 619.46875 C 1923.589844 610.160156 1942.46875 610.660156 1958.648438 620.738281 C 1976.558594 631.980469 1985.859375 649.039062 1983.488281 666.398438 C 1981.421875 681.671875 1970.910156 693.890625 1956.03125 698.28125 C 1938.71875 703.390625 1925.898438 695.871094 1919.648438 687.160156 C 1912.648438 677.429688 1912.398438 665.050781 1918.988281 655.679688 C 1924.710938 647.53125 1933.328125 647 1939.53125 649.199219 C 1942.269531 650.160156 1944.550781 651.679688 1946.03125 653.441406 C 1945 653.148438 1943.929688 653.03125 1942.828125 653.03125 C 1935.621094 653.03125 1929.808594 658.839844 1929.808594 666.078125 C 1929.808594 673.238281 1935.621094 679.089844 1942.828125 679.089844 C 1944.828125 679.078125 1946.75 678.621094 1948.398438 677.789062 C 1950.050781 677.199219 1951.789062 676.25 1953.429688 674.851562 C 1957.539062 671.371094 1959.851562 666.121094 1960.351562 659.261719 C 1960.96875 650.019531 1954.289062 641.308594 1943.640625 637.519531 C 1933.671875 633.941406 1918.570312 634.738281 1908.878906 648.558594 C 1899.21875 662.328125 1899.5 680.320312 1909.601562 694.421875 C 1916.46875 704.019531 1929.03125 712.589844 1945.558594 712.320312 C 1923.859375 744.5 1931.710938 766.691406 1936.648438 775.308594 C 1943.21875 786.851562 1954.898438 793.878906 1966.878906 793.878906 C 1968.570312 793.878906 1970.25 793.738281 1971.96875 793.460938 C 1990.328125 790.289062 1998.398438 774.820312 1996.628906 761.839844 C 1994.890625 749.03125 1984.671875 740.929688 1971.859375 742.238281 C 1971.761719 742.269531 1971.679688 742.269531 1971.601562 742.320312 C 1964.820312 742.859375 1959.601562 748.441406 1959.601562 755.28125 C 1959.601562 762.480469 1965.398438 768.308594 1972.609375 768.308594 C 1977.5 768.308594 1981.738281 765.609375 1983.988281 761.660156 C 1984.199219 762.410156 1984.300781 763.058594 1984.351562 763.511719 C 1985.160156 769.480469 1981.980469 779.191406 1969.890625 781.289062 C 1961.328125 782.730469 1952.308594 777.878906 1947.398438 769.199219 C 1938.640625 753.808594 1944.828125 731.238281 1963.890625 708.628906 C 1981.148438 701.878906 1993.210938 686.691406 1995.75 668.050781 C 1998.808594 645.75 1987.371094 624.109375 1965.210938 610.25 C 1945.410156 597.871094 1921.328125 597.238281 1900.890625 608.640625 C 1877.128906 621.769531 1862.339844 648.359375 1862.339844 677.921875 L 1862.339844 696.089844 C 1850.398438 677.511719 1835.941406 660.449219 1819.28125 645.289062 C 1812.300781 638.96875 1805.070312 633.078125 1797.480469 627.621094 L 1817.128906 627.609375 C 1846.691406 627.609375 1873.28125 612.871094 1886.410156 589.101562 C 1897.789062 568.621094 1897.179688 544.578125 1884.789062 524.800781 C 1870.941406 502.609375 1849.289062 491.128906 1826.988281 494.230469 C 1812.269531 496.238281 1799.679688 504.21875 1791.730469 515.941406 C 1791.289062 516.390625 1790.839844 516.890625 1790.519531 517.460938 C 1784.210938 528.730469 1776.148438 540.261719 1760.210938 547.871094 C 1742.941406 556.140625 1726.101562 556.140625 1715.191406 547.910156 C 1711.359375 545.03125 1708.769531 541.328125 1707.429688 537.269531 C 1707.351562 536.550781 1707.210938 535.871094 1706.878906 535.210938 C 1706.878906 535.121094 1706.800781 535.039062 1706.800781 535.019531 C 1706.28125 532.519531 1706.199219 529.921875 1706.640625 527.261719 C 1708.789062 515.140625 1718.421875 511.949219 1724.410156 512.769531 C 1724.851562 512.820312 1725.488281 512.941406 1726.21875 513.128906 C 1722.269531 515.371094 1719.589844 519.609375 1719.589844 524.488281 C 1719.589844 531.71875 1725.441406 537.550781 1732.640625 537.550781 C 1739.480469 537.550781 1745.058594 532.28125 1745.640625 525.570312 C 1745.640625 525.480469 1745.691406 525.359375 1745.691406 525.28125 C 1746.960938 512.460938 1738.910156 502.25 1726.070312 500.511719 C 1714.46875 498.921875 1700.890625 505.230469 1695.898438 519.738281 C 1691.691406 515.078125 1686.859375 510.800781 1682.28125 508.5 C 1663.21875 498.761719 1642.480469 499.25 1628.179688 509.769531 C 1617.800781 517.371094 1612.878906 529.28125 1614.929688 541.539062 C 1617.800781 558.269531 1630.921875 566.421875 1643.03125 566.421875 C 1644.179688 566.421875 1645.410156 566.339844 1646.558594 566.21875 C 1659.410156 564.46875 1667.460938 554.289062 1666.171875 541.460938 C 1666.171875 541.328125 1666.109375 541.261719 1666.058594 541.121094 C 1665.53125 534.460938 1659.949219 529.148438 1653.109375 529.148438 C 1645.910156 529.148438 1640.070312 535.019531 1640.070312 542.179688 C 1640.070312 547.078125 1642.761719 551.320312 1646.769531 553.558594 C 1645.988281 553.761719 1645.328125 553.878906 1644.878906 553.960938 C 1638.921875 554.71875 1629.25 551.539062 1627.148438 539.429688 C 1625.828125 531.800781 1628.910156 524.570312 1635.5 519.691406 C 1643.730469 513.660156 1658.910156 510.441406 1676.691406 519.53125 C 1683.058594 522.738281 1692.019531 533.671875 1695.039062 539.140625 C 1696.898438 546.339844 1701.261719 552.898438 1707.761719 557.789062 C 1715.351562 563.578125 1724.898438 566.46875 1735.28125 566.46875 C 1744.910156 566.46875 1755.191406 563.960938 1765.550781 559.070312 C 1772.429688 555.730469 1778.101562 551.738281 1782.800781 547.628906 C 1783.578125 562.589844 1791.648438 573.949219 1800.628906 580.378906 C 1814.730469 590.511719 1832.71875 590.789062 1846.460938 581.128906 C 1860.308594 571.410156 1861.070312 556.320312 1857.519531 546.339844 C 1853.769531 535.710938 1845.019531 529.039062 1835.78125 529.628906 C 1828.929688 530.121094 1823.679688 532.441406 1820.171875 536.550781 C 1818.800781 538.191406 1817.851562 539.949219 1817.238281 541.578125 C 1816.421875 543.25 1815.929688 545.148438 1815.929688 547.160156 C 1815.929688 554.359375 1821.800781 560.171875 1828.960938 560.171875 C 1836.199219 560.171875 1842.019531 554.359375 1842.019531 547.160156 C 1842.019531 546.058594 1841.890625 544.980469 1841.609375 543.941406 C 1843.371094 545.449219 1844.851562 547.660156 1845.851562 550.449219 C 1848.050781 556.640625 1847.480469 565.269531 1839.371094 570.988281 C 1829.988281 577.578125 1817.609375 577.328125 1807.859375 570.328125 C 1799.179688 564.078125 1791.648438 551.230469 1796.75 533.949219 C 1801.160156 519.070312 1813.378906 508.578125 1828.601562 506.480469 C 1846.050781 504.121094 1863.070312 513.421875 1874.300781 531.328125 C 1884.390625 547.511719 1884.871094 566.390625 1875.578125 583.128906 C 1864.578125 602.929688 1842.21875 615.230469 1817.128906 615.230469 L 1782.421875 615.230469 C 1781.488281 615.230469 1780.578125 615.480469 1779.75 615.878906 C 1740.308594 592.019531 1694.898438 579.171875 1648.011719 579.171875 L 1605.910156 579.171875 L 1605.910156 494.878906 C 1605.910156 491.460938 1603.140625 488.699219 1599.710938 488.699219 L 512.820312 488.699219 C 509.390625 488.699219 506.601562 491.460938 506.601562 494.878906 L 506.601562 579.171875 L 464.496094 579.171875 C 417.523438 579.171875 372.023438 592.058594 332.507812 616.011719 C 331.664062 615.550781 330.632812 615.230469 329.566406 615.230469 L 294.875 615.230469 C 269.828125 615.230469 247.394531 602.929688 236.402344 583.128906 C 227.128906 566.390625 227.609375 547.511719 237.714844 531.328125 C 248.90625 513.421875 265.988281 504.121094 283.402344 506.480469 C 298.621094 508.578125 310.847656 519.070312 315.246094 533.949219 C 320.386719 551.230469 312.859375 564.089844 304.171875 570.328125 C 294.394531 577.328125 282.042969 577.578125 272.664062 570.988281 C 264.515625 565.269531 263.941406 556.640625 266.152344 550.449219 C 267.136719 547.660156 268.636719 545.449219 270.394531 543.941406 C 270.144531 544.949219 269.980469 546.058594 269.980469 547.160156 C 269.980469 554.359375 275.789062 560.171875 283.015625 560.171875 C 290.238281 560.171875 296.046875 554.359375 296.046875 547.160156 C 296.046875 545.148438 295.566406 543.25 294.792969 541.578125 C 294.125 539.949219 293.234375 538.191406 291.832031 536.550781 C 288.296875 532.441406 283.050781 530.121094 276.199219 529.628906 C 266.984375 529.039062 258.25 535.710938 254.515625 546.339844 C 250.945312 556.320312 251.71875 571.410156 265.546875 581.089844 C 279.277344 590.789062 297.273438 590.511719 311.371094 580.378906 C 320.386719 573.949219 328.433594 562.589844 329.238281 547.628906 C 333.878906 551.738281 339.566406 555.730469 346.441406 559.070312 C 356.789062 563.960938 367.140625 566.46875 376.71875 566.46875 C 387.078125 566.46875 396.621094 563.589844 404.292969 557.789062 C 410.789062 552.890625 415.121094 546.378906 416.996094 539.140625 C 419.957031 533.671875 428.972656 522.738281 435.332031 519.53125 C 453.117188 510.441406 468.246094 513.660156 476.476562 519.691406 C 483.101562 524.570312 486.171875 531.800781 484.882812 539.429688 C 482.785156 551.539062 473.078125 554.71875 467.109375 553.960938 C 466.652344 553.878906 466.007812 553.761719 465.257812 553.558594 C 469.21875 551.320312 471.910156 547.078125 471.910156 542.179688 C 471.910156 535.019531 466.089844 529.148438 458.890625 529.148438 C 452.050781 529.148438 446.46875 534.460938 445.914062 541.121094 C 445.882812 541.261719 445.882812 541.328125 445.835938 541.460938 C 444.570312 554.28125 452.625 564.46875 465.421875 566.21875 C 466.605469 566.339844 467.800781 566.421875 468.972656 566.421875 C 481.066406 566.421875 494.179688 558.28125 497.082031 541.539062 C 499.167969 529.269531 494.179688 517.371094 483.816406 509.769531 C 469.496094 499.199219 448.761719 498.761719 429.699219 508.5 C 425.144531 510.800781 420.320312 515.078125 416.128906 519.738281 C 411.128906 505.230469 397.535156 498.960938 385.921875 500.511719 C 373.125 502.25 365.058594 512.460938 366.308594 525.28125 C 366.355469 525.410156 366.390625 525.488281 366.390625 525.570312 C 366.976562 532.28125 372.5625 537.550781 379.363281 537.550781 C 386.554688 537.550781 392.382812 531.71875 392.382812 524.488281 C 392.382812 519.609375 389.703125 515.378906 385.757812 513.128906 C 386.484375 512.941406 387.128906 512.851562 387.585938 512.769531 C 393.578125 511.949219 403.261719 515.140625 405.359375 527.261719 C 405.804688 529.910156 405.722656 532.519531 405.171875 535.019531 C 405.171875 535.039062 405.136719 535.121094 405.101562 535.210938 C 404.808594 535.871094 404.65625 536.550781 404.609375 537.269531 C 403.261719 541.328125 400.664062 545.03125 396.785156 547.910156 C 385.875 556.140625 369.050781 556.140625 351.800781 547.871094 C 335.902344 540.261719 327.835938 528.730469 321.453125 517.460938 C 321.136719 516.890625 320.726562 516.390625 320.304688 515.941406 C 312.320312 504.21875 299.769531 496.238281 285.050781 494.230469 C 262.6875 491.171875 241.109375 502.609375 227.210938 524.800781 C 214.871094 544.578125 214.238281 568.621094 225.617188 589.101562 C 238.769531 612.871094 265.285156 627.621094 294.875 627.621094 L 315.035156 627.609375 C 307.496094 633.078125 300.203125 638.96875 293.234375 645.289062 C 276.316406 660.648438 261.714844 678.039062 249.65625 696.890625 L 249.65625 677.921875 C 249.65625 648.351562 234.890625 621.769531 211.15625 608.640625 C 190.667969 597.238281 166.617188 597.871094 146.832031 610.25 C 124.632812 624.109375 113.214844 645.75 116.234375 668.101562 C 118.800781 686.691406 130.824219 701.878906 148.132812 708.628906 C 167.167969 731.238281 173.339844 753.808594 164.582031 769.199219 C 159.699219 777.878906 150.671875 782.691406 142.160156 781.289062 C 130.015625 779.191406 126.832031 769.480469 127.628906 763.511719 C 127.710938 763.039062 127.839844 762.410156 128.039062 761.660156 C 130.296875 765.609375 134.535156 768.308594 139.394531 768.308594 C 146.597656 768.308594 152.402344 762.480469 152.402344 755.28125 C 152.402344 748.441406 147.160156 742.859375 140.425781 742.320312 C 140.34375 742.269531 140.214844 742.269531 140.144531 742.238281 C 127.335938 740.929688 117.125 748.988281 115.371094 761.839844 C 113.636719 774.820312 121.667969 790.300781 140.0625 793.460938 C 141.726562 793.738281 143.445312 793.878906 145.15625 793.878906 C 157.074219 793.878906 168.820312 786.851562 175.398438 775.308594 C 180.316406 766.691406 188.140625 744.5 166.453125 712.320312 C 183 712.589844 195.503906 704.019531 202.4375 694.421875 C 212.539062 680.320312 212.832031 662.328125 203.125 648.589844 C 193.421875 634.78125 178.316406 633.941406 168.351562 637.519531 C 157.742188 641.269531 151.035156 650.019531 151.679688 659.261719 C 152.136719 666.121094 154.5 671.371094 158.609375 674.851562 C 160.25 676.238281 161.945312 677.199219 163.574219 677.789062 C 165.273438 678.621094 167.167969 679.089844 169.183594 679.089844 C 176.359375 679.078125 182.226562 673.238281 182.226562 666.078125 C 182.226562 658.839844 176.359375 653.03125 169.183594 653.03125 C 168.09375 653.03125 167.003906 653.148438 165.976562 653.441406 C 167.484375 651.679688 169.722656 650.160156 172.472656 649.199219 C 178.644531 647 187.273438 647.558594 193.046875 655.679688 C 199.613281 665.050781 199.332031 677.429688 192.378906 687.160156 C 186.101562 695.871094 173.257812 703.390625 156.011719 698.28125 C 141.128906 693.890625 130.613281 681.671875 128.542969 666.398438 C 126.175781 649.039062 135.4375 631.980469 153.386719 620.738281 C 169.570312 610.660156 188.421875 610.179688 205.128906 619.46875 C 224.976562 630.421875 237.269531 652.828125 237.269531 677.921875 L 237.269531 712.628906 C 237.269531 713.96875 237.714844 715.25 238.4375 716.238281 C 224.566406 742.859375 215.386719 771.910156 211.59375 802.121094 L 116.726562 802.121094 C 113.332031 802.121094 110.570312 804.898438 110.570312 808.308594 L 110.570312 1302.90625 C 110.570312 1306.335938 113.332031 1309.101562 116.726562 1309.101562 L 211.59375 1309.101562 C 215.515625 1340.058594 225.011719 1369.75 239.503906 1396.9375 C 238.136719 1398.0625 237.269531 1399.734375 237.269531 1401.644531 L 237.269531 1436.359375 C 237.269531 1461.40625 224.976562 1483.816406 205.128906 1494.808594 C 188.421875 1504.070312 169.570312 1503.628906 153.386719 1493.5 C 135.4375 1482.304688 126.140625 1465.246094 128.542969 1447.835938 C 130.613281 1432.566406 141.128906 1420.390625 156.011719 1415.988281 C 173.257812 1410.847656 186.101562 1418.351562 192.378906 1427.0625 C 199.332031 1436.804688 199.613281 1449.183594 193.046875 1458.570312 C 187.273438 1466.710938 178.644531 1467.234375 172.472656 1465.082031 C 169.722656 1464.085938 167.484375 1462.554688 165.976562 1460.84375 C 167.003906 1461.089844 168.09375 1461.253906 169.183594 1461.253906 C 176.359375 1461.253906 182.226562 1455.421875 182.226562 1448.199219 C 182.226562 1440.996094 176.359375 1435.164062 169.183594 1435.164062 C 167.167969 1435.164062 165.226562 1435.65625 163.574219 1436.476562 C 161.945312 1437.085938 160.25 1437.988281 158.609375 1439.40625 C 154.5 1442.871094 152.136719 1448.117188 151.679688 1455.011719 C 151.035156 1464.214844 157.742188 1472.960938 168.351562 1476.71875 C 178.316406 1480.269531 193.421875 1479.507812 203.125 1465.691406 C 212.832031 1451.910156 212.539062 1433.925781 202.4375 1419.863281 C 195.503906 1410.238281 183 1401.691406 166.453125 1401.9375 C 188.140625 1369.738281 180.316406 1347.597656 175.398438 1338.933594 C 167.847656 1325.75 153.667969 1318.476562 140.0625 1320.773438 C 121.667969 1323.921875 113.636719 1339.449219 115.371094 1352.398438 C 117.125 1365.230469 127.335938 1373.285156 140.144531 1372.011719 C 140.214844 1371.996094 140.296875 1371.964844 140.378906 1371.964844 C 147.125 1371.414062 152.402344 1365.792969 152.402344 1358.953125 C 152.402344 1351.753906 146.597656 1345.921875 139.394531 1345.921875 C 134.535156 1345.921875 130.296875 1348.605469 128.039062 1352.5625 C 127.839844 1351.835938 127.710938 1351.191406 127.628906 1350.722656 C 126.832031 1344.730469 130.015625 1335.058594 142.160156 1332.949219 C 150.671875 1331.546875 159.699219 1336.382812 164.582031 1345.023438 C 173.339844 1360.429688 167.167969 1383.027344 148.132812 1405.636719 C 130.824219 1412.40625 118.800781 1427.542969 116.234375 1446.183594 C 113.214844 1468.488281 124.632812 1490.128906 146.832031 1503.988281 C 157.15625 1510.5 168.703125 1513.707031 180.269531 1513.707031 C 190.820312 1513.707031 201.394531 1511.027344 211.15625 1505.605469 C 234.890625 1492.445312 249.65625 1465.890625 249.65625 1436.359375 L 249.65625 1414.3125 C 261.714844 1433.175781 276.316406 1450.585938 293.234375 1465.890625 C 301.550781 1473.429688 310.226562 1480.351562 319.324219 1486.625 L 294.875 1486.625 C 265.285156 1486.625 238.769531 1501.367188 225.617188 1525.125 C 214.238281 1545.613281 214.871094 1569.652344 227.210938 1589.4375 C 239.585938 1609.285156 258.167969 1620.527344 277.933594 1620.480469 C 280.273438 1620.480469 282.652344 1620.316406 285.050781 1620 C 299.769531 1617.996094 312.320312 1610.058594 320.246094 1598.289062 C 320.691406 1597.894531 321.136719 1597.390625 321.453125 1596.828125 C 327.835938 1585.480469 335.902344 1574.019531 351.800781 1566.351562 C 369.050781 1558.058594 385.875 1558.058594 396.785156 1566.351562 C 400.664062 1569.253906 403.261719 1572.90625 404.609375 1577.015625 C 404.65625 1577.71875 404.808594 1578.363281 405.101562 1579.019531 C 405.136719 1579.089844 405.171875 1579.183594 405.171875 1579.253906 C 405.722656 1581.757812 405.804688 1584.324219 405.359375 1587.003906 C 403.261719 1599.074219 393.578125 1602.328125 387.585938 1601.464844 C 387.128906 1601.417969 386.484375 1601.300781 385.757812 1601.101562 C 389.703125 1598.851562 392.382812 1594.625 392.382812 1589.742188 C 392.382812 1582.519531 386.554688 1576.6875 379.363281 1576.6875 C 372.5625 1576.6875 366.941406 1581.992188 366.390625 1588.679688 C 366.390625 1588.796875 366.355469 1588.878906 366.308594 1588.996094 C 365.058594 1601.828125 373.125 1612.015625 385.921875 1613.769531 C 387.078125 1613.921875 388.273438 1613.96875 389.457031 1613.96875 C 400.171875 1613.96875 411.609375 1607.574219 416.128906 1594.546875 C 420.320312 1599.121094 425.144531 1603.421875 429.699219 1605.773438 C 438.84375 1610.433594 448.351562 1612.738281 457.367188 1612.738281 C 467.15625 1612.738281 476.347656 1609.976562 483.816406 1604.507812 C 494.179688 1596.863281 499.167969 1584.96875 497.082031 1572.695312 C 493.898438 1554.324219 478.429688 1546.257812 465.421875 1548.0625 C 452.625 1549.769531 444.570312 1559.992188 445.835938 1572.824219 C 445.882812 1572.894531 445.914062 1573.023438 445.914062 1573.105469 C 446.46875 1579.816406 452.050781 1585.085938 458.890625 1585.085938 C 466.089844 1585.085938 471.910156 1579.253906 471.910156 1572.050781 C 471.910156 1567.15625 469.21875 1562.921875 465.257812 1560.683594 C 466.007812 1560.472656 466.652344 1560.355469 467.109375 1560.320312 C 473.078125 1559.511719 482.785156 1562.683594 484.882812 1574.816406 C 486.171875 1582.4375 483.101562 1589.660156 476.476562 1594.546875 C 468.246094 1600.609375 453.117188 1603.816406 435.332031 1594.742188 C 428.972656 1591.476562 419.957031 1580.5625 416.996094 1575.144531 C 415.121094 1567.894531 410.789062 1561.351562 404.292969 1556.445312 C 389.585938 1545.367188 367.949219 1544.886719 346.441406 1555.167969 C 339.566406 1558.480469 333.878906 1562.476562 329.238281 1566.632812 C 328.433594 1551.644531 320.386719 1540.335938 311.371094 1533.835938 C 297.273438 1523.730469 279.277344 1523.449219 265.546875 1533.144531 C 251.71875 1542.828125 250.945312 1557.953125 254.515625 1567.941406 C 258.25 1578.527344 267.019531 1585.246094 276.199219 1584.605469 C 283.050781 1584.089844 288.296875 1581.839844 291.832031 1577.71875 C 293.234375 1576.046875 294.125 1574.300781 294.792969 1572.695312 C 295.566406 1570.988281 296.046875 1569.089844 296.046875 1567.074219 C 296.046875 1559.910156 290.238281 1554.046875 283.015625 1554.046875 C 275.789062 1554.046875 269.980469 1559.910156 269.980469 1567.074219 C 269.980469 1568.1875 270.144531 1569.289062 270.394531 1570.296875 C 268.636719 1568.832031 267.136719 1566.550781 266.152344 1563.785156 C 263.941406 1557.640625 264.515625 1548.964844 272.664062 1543.25 C 282.042969 1536.65625 294.394531 1536.9375 304.171875 1543.90625 C 312.859375 1550.167969 320.386719 1563 315.246094 1580.28125 C 310.847656 1595.152344 298.621094 1605.65625 283.402344 1607.738281 C 265.988281 1610.128906 248.90625 1600.820312 237.714844 1582.882812 C 227.609375 1566.714844 227.128906 1547.851562 236.402344 1531.152344 C 247.394531 1511.308594 269.828125 1499.003906 294.875 1499.003906 L 329.566406 1499.003906 C 331.664062 1499.003906 333.433594 1497.996094 334.589844 1496.4375 C 373.617188 1519.574219 418.34375 1532.007812 464.496094 1532.007812 L 506.601562 1531.996094 L 506.601562 1616.320312 C 506.601562 1619.695312 509.390625 1622.480469 512.820312 1622.480469 L 1599.710938 1622.480469 C 1603.140625 1622.480469 1605.910156 1619.695312 1605.910156 1616.320312 L 1605.910156 1531.996094 L 1648.019531 1531.996094 C 1694.058594 1531.996094 1738.609375 1519.65625 1777.621094 1496.648438 C 1778.71875 1498.078125 1780.460938 1499.003906 1782.410156 1499.003906 L 1817.128906 1499.003906 C 1842.21875 1499.003906 1864.578125 1511.308594 1875.578125 1531.152344 C 1884.871094 1547.851562 1884.390625 1566.714844 1874.300781 1582.882812 C 1863.070312 1600.808594 1846 1610.09375 1828.601562 1607.738281 C 1813.378906 1605.65625 1801.160156 1595.152344 1796.75 1580.28125 C 1791.648438 1563 1799.179688 1550.167969 1807.859375 1543.90625 C 1817.609375 1536.902344 1829.960938 1536.65625 1839.371094 1543.25 C 1847.480469 1548.964844 1848.050781 1557.640625 1845.851562 1563.785156 C 1844.851562 1566.550781 1843.320312 1568.832031 1841.609375 1570.320312 C 1841.890625 1569.289062 1842.019531 1568.222656 1842.019531 1567.074219 C 1842.019531 1559.910156 1836.199219 1554.046875 1828.960938 1554.046875 C 1821.808594 1554.046875 1815.929688 1559.910156 1815.929688 1567.074219 C 1815.929688 1569.089844 1816.421875 1570.988281 1817.238281 1572.695312 C 1817.851562 1574.335938 1818.800781 1576.046875 1820.171875 1577.71875 C 1823.679688 1581.828125 1828.929688 1584.101562 1835.78125 1584.605469 C 1845.019531 1585.246094 1853.769531 1578.527344 1857.519531 1567.941406 C 1861.070312 1557.953125 1860.308594 1542.828125 1846.488281 1533.144531 C 1832.71875 1523.449219 1814.730469 1523.730469 1800.628906 1533.835938 C 1791.648438 1540.320312 1783.578125 1551.644531 1782.800781 1566.632812 C 1778.101562 1562.476562 1772.429688 1558.480469 1765.550781 1555.167969 C 1744.03125 1544.886719 1722.449219 1545.367188 1707.761719 1556.445312 C 1701.261719 1561.351562 1696.898438 1567.894531 1695.039062 1575.144531 C 1692.050781 1580.5625 1683.058594 1591.476562 1676.691406 1594.742188 C 1658.910156 1603.816406 1643.730469 1600.609375 1635.5 1594.546875 C 1628.910156 1589.660156 1625.828125 1582.449219 1627.148438 1574.816406 C 1629.261719 1562.671875 1638.921875 1559.511719 1644.878906 1560.320312 C 1645.328125 1560.355469 1645.988281 1560.472656 1646.769531 1560.683594 C 1642.769531 1562.921875 1640.070312 1567.191406 1640.070312 1572.050781 C 1640.070312 1579.253906 1645.910156 1585.085938 1653.109375 1585.085938 C 1659.949219 1585.085938 1665.53125 1579.828125 1666.058594 1573.105469 C 1666.109375 1573.023438 1666.171875 1572.90625 1666.171875 1572.824219 C 1667.460938 1559.992188 1659.410156 1549.769531 1646.558594 1548.0625 C 1633.621094 1546.304688 1618.128906 1554.324219 1614.929688 1572.695312 C 1612.878906 1584.96875 1617.800781 1596.863281 1628.179688 1604.507812 C 1635.628906 1609.976562 1644.851562 1612.738281 1654.671875 1612.738281 C 1663.679688 1612.738281 1673.160156 1610.433594 1682.28125 1605.773438 C 1686.859375 1603.421875 1691.660156 1599.121094 1695.851562 1594.546875 C 1700.371094 1607.574219 1711.820312 1613.96875 1722.53125 1613.96875 C 1723.730469 1613.96875 1724.898438 1613.921875 1726.070312 1613.769531 C 1738.910156 1612.015625 1746.960938 1601.828125 1745.691406 1588.996094 C 1745.691406 1588.878906 1745.640625 1588.796875 1745.640625 1588.679688 C 1745.058594 1581.992188 1739.480469 1576.6875 1732.640625 1576.6875 C 1725.441406 1576.6875 1719.589844 1582.519531 1719.589844 1589.742188 C 1719.589844 1594.625 1722.269531 1598.863281 1726.21875 1601.101562 C 1725.488281 1601.300781 1724.851562 1601.429688 1724.410156 1601.464844 C 1718.421875 1602.285156 1708.769531 1599.085938 1706.640625 1587.003906 C 1706.199219 1584.324219 1706.28125 1581.757812 1706.800781 1579.253906 C 1706.800781 1579.171875 1706.878906 1579.089844 1706.878906 1579.019531 C 1707.210938 1578.363281 1707.351562 1577.71875 1707.429688 1577.015625 C 1708.789062 1572.894531 1711.359375 1569.253906 1715.191406 1566.351562 C 1726.101562 1558.058594 1742.941406 1558.058594 1760.210938 1566.351562 C 1776.148438 1574.019531 1784.210938 1585.492188 1790.519531 1596.828125 C 1790.839844 1597.390625 1791.289062 1597.894531 1791.730469 1598.339844 C 1799.71875 1610.046875 1812.269531 1617.996094 1826.988281 1620 C 1829.351562 1620.316406 1831.699219 1620.480469 1834.070312 1620.480469 C 1853.808594 1620.480469 1872.398438 1609.285156 1884.789062 1589.4375 C 1897.179688 1569.652344 1897.789062 1545.613281 1886.410156 1525.125 "/>
<path fill-rule="evenodd" fill="currentColor" fill-opacity="1" d="M 1903.21875 1523.320312 C 1898.148438 1528.425781 1898.148438 1536.703125 1903.21875 1541.785156 C 1908.328125 1546.867188 1916.558594 1546.867188 1921.660156 1541.785156 C 1926.769531 1536.703125 1926.769531 1528.472656 1921.660156 1523.332031 C 1916.558594 1518.261719 1908.328125 1518.226562 1903.21875 1523.320312 "/>
<path fill-rule="evenodd" fill="currentColor" fill-opacity="1" d="M 1972.820312 1558.398438 C 1971.429688 1559.464844 1970.589844 1561.058594 1970.460938 1562.753906 C 1970.289062 1564.511719 1970.910156 1566.210938 1972.039062 1567.472656 C 1987.730469 1584.476562 1989.609375 1601.746094 1989.429688 1610.011719 C 1979.78125 1609.683594 1960.179688 1606.96875 1945.441406 1591.394531 C 1944.128906 1590.023438 1942.269531 1589.320312 1940.359375 1589.484375 C 1938.441406 1589.710938 1936.730469 1590.714844 1935.699219 1592.320312 C 1935.621094 1592.507812 1925.621094 1608.136719 1910.96875 1610.597656 C 1916.878906 1600.609375 1925.191406 1583.726562 1927.058594 1565.542969 C 1931.019531 1564.195312 1935.058594 1562.109375 1938.839844 1558.363281 C 1942.199219 1555.015625 1944.71875 1551.28125 1946.46875 1547.171875 C 1964.539062 1545.25 1981 1536.984375 1990.738281 1531.070312 C 1988.539062 1545.894531 1972.96875 1558.28125 1972.820312 1558.398438 Z M 2002.078125 1518.367188 C 2001.488281 1516.402344 1999.988281 1514.855469 1998.078125 1514.1875 C 1996.121094 1513.542969 1993.960938 1513.90625 1992.390625 1515.136719 C 1992.121094 1515.335938 1967.609375 1533.835938 1941.671875 1535.109375 C 1938.980469 1535.230469 1936.679688 1537.066406 1935.929688 1539.664062 C 1934.949219 1543.414062 1933.019531 1546.667969 1930.089844 1549.605469 C 1927.191406 1552.488281 1924.101562 1553.679688 1919.679688 1554.769531 C 1917.058594 1555.472656 1915.128906 1557.789062 1915 1560.566406 C 1913.910156 1586.710938 1895.21875 1612.257812 1895 1612.492188 C 1893.808594 1614.167969 1893.46875 1616.320312 1894.148438 1618.277344 C 1894.839844 1620.234375 1896.488281 1621.710938 1898.46875 1622.234375 C 1901.328125 1622.9375 1904.25 1623.300781 1907.140625 1623.300781 C 1923.359375 1623.300781 1935.539062 1612.097656 1941.710938 1604.882812 C 1960.101562 1620.5625 1982.269531 1622.398438 1991.558594 1622.398438 C 1994.011719 1622.398438 1995.519531 1622.269531 1995.679688 1622.269531 C 1998.398438 1622.035156 2000.660156 1620 2001.160156 1617.269531 C 2001.359375 1616.121094 2006.148438 1590.105469 1985.230469 1563.867188 C 1993.308594 1556 2007.859375 1538.4375 2002.078125 1518.367188 "/>
<path fill-rule="evenodd" fill="currentColor" fill-opacity="1" d="M 1853.328125 1262.441406 L 1849.621094 1298.175781 C 1844.558594 1347.761719 1821.320312 1393.578125 1784.210938 1427.261719 C 1746.871094 1461.160156 1698.53125 1479.871094 1648.011719 1479.871094 L 1559.910156 1479.871094 C 1556.550781 1479.871094 1553.761719 1482.632812 1553.761719 1486.050781 L 1553.761719 1570.320312 L 558.824219 1570.320312 L 558.824219 1486.050781 C 558.824219 1482.621094 556.035156 1479.871094 552.605469 1479.871094 L 464.496094 1479.871094 C 414.035156 1479.871094 365.6875 1461.171875 328.316406 1427.261719 C 291.199219 1393.578125 267.96875 1347.761719 262.910156 1298.1875 L 259.210938 1262.441406 C 258.917969 1259.304688 256.246094 1256.914062 253.027344 1256.914062 L 162.730469 1256.914062 L 162.730469 854.28125 L 253.027344 854.28125 C 256.246094 854.28125 258.917969 851.851562 259.210938 848.730469 L 262.910156 813 C 267.96875 763.429688 291.199219 717.589844 328.316406 683.910156 C 365.6875 650.019531 414.035156 631.351562 464.496094 631.351562 L 552.605469 631.351562 C 556.035156 631.351562 558.824219 628.578125 558.824219 625.171875 L 558.824219 540.871094 L 1553.761719 540.871094 L 1553.761719 625.171875 C 1553.761719 628.578125 1556.550781 631.351562 1559.910156 631.351562 L 1648.019531 631.351562 C 1698.488281 631.351562 1746.871094 650.019531 1784.210938 683.910156 C 1821.320312 717.589844 1844.558594 763.429688 1849.621094 813 L 1853.328125 848.730469 C 1853.648438 851.851562 1856.320312 854.28125 1859.5 854.28125 L 1949.800781 854.28125 L 1949.800781 1256.914062 L 1859.5 1256.914062 C 1856.320312 1256.914062 1853.648438 1259.304688 1853.328125 1262.441406 Z M 1865.078125 1269.300781 L 1955.980469 1269.300781 C 1959.410156 1269.300781 1962.199219 1266.515625 1962.199219 1263.097656 L 1962.199219 848.058594 C 1962.199219 844.691406 1959.410156 841.929688 1955.980469 841.929688 L 1865.078125 841.929688 L 1861.960938 811.738281 C 1856.558594 759.160156 1831.898438 710.46875 1792.558594 674.738281 C 1752.929688 638.769531 1701.570312 618.96875 1648.011719 618.96875 L 1566.089844 618.96875 L 1566.089844 534.699219 C 1566.089844 531.25 1563.320312 528.488281 1559.910156 528.488281 L 552.605469 528.488281 C 549.199219 528.488281 546.421875 531.25 546.421875 534.699219 L 546.421875 618.96875 L 464.496094 618.96875 C 410.941406 618.96875 359.636719 638.769531 320.003906 674.738281 C 280.613281 710.46875 255.96875 759.160156 250.605469 811.738281 L 247.433594 841.929688 L 156.515625 841.929688 C 153.105469 841.929688 150.34375 844.691406 150.34375 848.058594 L 150.34375 1263.085938 C 150.34375 1266.515625 153.105469 1269.300781 156.515625 1269.300781 L 247.433594 1269.300781 L 250.605469 1299.429688 C 255.96875 1352.070312 280.613281 1400.730469 320.003906 1436.441406 C 359.589844 1472.398438 410.941406 1492.210938 464.496094 1492.210938 L 546.421875 1492.210938 L 546.421875 1576.535156 C 546.421875 1579.945312 549.199219 1582.707031 552.605469 1582.707031 L 1559.910156 1582.707031 C 1563.320312 1582.707031 1566.078125 1579.945312 1566.078125 1576.535156 L 1566.089844 1492.210938 L 1648.019531 1492.210938 C 1701.570312 1492.210938 1752.929688 1472.398438 1792.558594 1436.441406 C 1831.898438 1400.71875 1856.558594 1352.082031 1861.960938 1299.441406 L 1865.078125 1269.300781 "/>
</svg>